<svg width="168" height="168" viewBox="0 0 168 168" fill="none" xmlns="http://www.w3.org/2000/svg">
<path d="M84 112V154M84 112L98 126M84 112L70 126" stroke="#7C77AB" stroke-width="4" stroke-linecap="round" stroke-linejoin="round"/>
<path d="M154 93.471C154 109.872 143.892 123.942 129.5 129.92M100.667 56.189C104.955 54.6998 109.463 53.9403 114.002 53.942C118.58 53.942 122.983 54.705 127.092 56.105M127.092 56.105C124.859 36.358 107.912 21 87.332 21C65.24 21 47.334 38.696 47.334 60.529C47.3319 65.2184 48.1712 69.8701 49.812 74.263M127.092 56.105C133.241 58.2035 138.785 61.7718 143.241 66.5M49.812 74.263C47.8974 73.8928 45.952 73.7053 44.002 73.703C27.433 73.71 14 86.982 14 103.355C14 116.627 22.827 127.862 35 131.642M49.812 74.263C53.6846 75.017 57.3711 76.5249 60.662 78.701" stroke="#7C77AB" stroke-width="4" stroke-linecap="round"/>
</svg>
