<svg width="30" height="30" viewBox="0 0 30 30" fill="none" xmlns="http://www.w3.org/2000/svg">
<g id="Group">
<path id="Vector" d="M28.9998 12.9001V15C28.9998 21.5996 28.9998 24.8994 26.9488 26.949C24.9007 29 21.5995 29 14.9999 29C8.40036 29 5.10058 29 3.04959 26.949C1 24.9008 1 21.5996 1 15C1 8.40048 1 5.1007 3.04959 3.04971C5.10198 1.00012 8.40036 1.00012 14.9999 1.00012H17.0999" stroke="#4EFBAD" stroke-width="1.5" stroke-linecap="round"/>
<path id="Vector_2" d="M21.5131 3.03716L22.4217 2.12856C23.1446 1.40582 24.125 0.999869 25.1473 1C26.1695 1.00013 27.1498 1.40634 27.8725 2.12926C28.5953 2.85218 29.0012 3.8326 29.0011 4.85484C29.001 5.87708 28.5948 6.85739 27.8718 7.58013L26.9619 8.48872C26.9619 8.48872 25.0327 8.37532 23.3303 6.67153C21.6265 4.96914 21.5131 3.03856 21.5131 3.03856L13.1621 11.3881C12.5965 11.9537 12.3137 12.2365 12.0701 12.5487C11.7827 12.9174 11.5381 13.3131 11.3365 13.7359C11.1671 14.0929 11.0411 14.4723 10.7877 15.2311L9.97715 17.6601M9.97715 17.6601L9.45356 19.2309C9.39198 19.4141 9.38272 19.6108 9.42684 19.799C9.47095 19.9871 9.56669 20.1593 9.70328 20.296C9.83987 20.4327 10.0119 20.5286 10.2 20.573C10.3881 20.6173 10.5849 20.6082 10.7681 20.5469L12.3403 20.0233M9.97715 17.6601L12.3403 20.0233M26.9633 8.48732L18.6123 16.8383C18.0467 17.4039 17.7639 17.6867 17.4517 17.9303C17.0837 18.2171 16.6857 18.4631 16.2645 18.6639C15.9075 18.8333 15.5281 18.9593 14.7693 19.2127L12.3403 20.0233" stroke="#4EFBAD" stroke-width="1.5"/>
</g>
</svg>
