<svg width="28" height="28" viewBox="0 0 28 28" fill="none" xmlns="http://www.w3.org/2000/svg">
<g id="ICONS/Google">
<path id="Vector" d="M25.8207 11.7051C25.7962 11.5708 25.7252 11.4494 25.6204 11.362C25.5155 11.2746 25.3833 11.2268 25.2467 11.2268H14.2591C14.1048 11.2268 13.9567 11.2879 13.8474 11.3968C13.7381 11.5057 13.6763 11.6535 13.6757 11.8078V16.3216C13.6757 16.4763 13.7372 16.6247 13.8466 16.7341C13.956 16.8435 14.1044 16.905 14.2591 16.905H19.7832C19.4375 17.9093 18.7703 18.7716 17.8851 19.3585C16.8036 20.0485 15.5416 20.4018 14.2591 20.3735C12.9255 20.3608 11.6299 19.9276 10.5569 19.1355C9.48397 18.3435 8.68834 17.233 8.28339 15.9623V15.96C7.83537 14.6437 7.83537 13.2162 8.28339 11.9V11.8976C8.68821 10.6273 9.4835 9.51713 10.556 8.72511C11.6285 7.9331 12.9235 7.49964 14.2567 7.48647C15.7653 7.46124 17.2234 8.02982 18.3167 9.06964C18.4268 9.17544 18.574 9.23384 18.7267 9.23232C18.8794 9.23079 19.0254 9.16945 19.1334 9.06147L22.4794 5.7143C22.5349 5.65888 22.5786 5.59283 22.608 5.52011C22.6374 5.44739 22.6518 5.3695 22.6504 5.29108C22.649 5.21267 22.6317 5.13534 22.5998 5.06373C22.5678 4.99212 22.5217 4.92769 22.4642 4.8743C20.2424 2.79371 17.304 1.64962 14.2602 1.67997C11.9879 1.67301 9.75882 2.30125 7.82454 3.4938C5.89027 4.68636 4.32779 6.39577 3.31339 8.42914C2.45649 10.1362 2.01025 12.0199 2.01025 13.93C2.01025 15.8401 2.45649 17.7237 3.31339 19.4308C4.32779 21.4642 5.89027 23.1736 7.82454 24.3661C9.75882 25.5587 11.9879 26.1869 14.2602 26.18C17.2446 26.2585 20.1461 25.1934 22.3709 23.2026L22.3767 23.2003C23.5816 22.0376 24.5302 20.6358 25.1617 19.085C25.7931 17.5342 26.0935 15.8685 26.0436 14.1948C26.0436 13.3595 25.9677 12.5265 25.8207 11.7051ZM14.2602 2.84664C16.8002 2.81992 19.2664 3.69977 21.2159 5.32814L18.6959 7.84814C17.44 6.83848 15.8715 6.29804 14.2602 6.3198C12.8202 6.33006 11.4139 6.75584 10.21 7.546C9.00612 8.33616 8.05599 9.45709 7.47373 10.7741L4.58039 8.52947C5.53729 6.80244 6.94041 5.36407 8.64317 4.36462C10.3459 3.36517 12.2858 2.84016 14.2602 2.84664ZM3.17689 13.9311C3.17317 12.4437 3.47206 10.9711 4.05539 9.6028L7.05723 11.9291C6.69291 13.2385 6.69291 14.6226 7.05723 15.932L4.05539 18.2583C3.47777 16.8882 3.17874 15.4168 3.17573 13.93M14.2591 25.0133C12.2844 25.0199 10.3441 24.496 8.64113 23.4963C6.93814 22.4966 5.5349 21.0579 4.57806 19.3305L7.47256 17.0858C8.05482 18.4029 9.00495 19.5238 10.2088 20.3139C11.4127 21.1041 12.8191 21.5299 14.2591 21.5401C15.628 21.5608 16.9782 21.2199 18.1732 20.552L18.3016 20.6511L21.0584 22.7931C19.1124 24.2888 16.7127 25.0724 14.2591 25.0133ZM21.9381 21.9986L19.1637 19.845C20.1814 18.9596 20.8679 17.7546 21.1109 16.4278C21.1263 16.3438 21.123 16.2574 21.1013 16.1748C21.0797 16.0922 21.0401 16.0153 20.9855 15.9497C20.9308 15.884 20.8624 15.8312 20.7851 15.7948C20.7078 15.7585 20.6235 15.7396 20.5381 15.7395H14.8424V12.3923H24.7497C24.8337 12.9904 24.8757 13.5912 24.8757 14.1948C24.96 17.0814 23.9047 19.884 21.9381 21.9986Z" fill="#F0ECFC"/>
</g>
</svg>
