<svg width="155" height="45" viewBox="0 0 155 45" fill="none" xmlns="http://www.w3.org/2000/svg">
<g id="logo_2svg" clip-path="url(#clip0_49_361)">
<path id="Vector" d="M28.42 11.38V5.77H26.02V11.38H28.42Z" fill="#F0ECFC"/>
<path id="Vector_2" d="M28.42 38.81V33.2H26.02V38.81H28.42Z" fill="#F0ECFC"/>
<path id="Vector_3" d="M39.03 41.39C18.88 41.39 2.55 22.5 2.55 22.5C2.55 22.5 18.88 3.61 39.03 3.61" stroke="#F0ECFC" stroke-width="2.5" stroke-miterlimit="10"/>
<path id="Vector_4" d="M27.22 32.91C32.9693 32.91 37.63 28.2493 37.63 22.5C37.63 16.7507 32.9693 12.09 27.22 12.09C21.4707 12.09 16.81 16.7507 16.81 22.5C16.81 28.2493 21.4707 32.91 27.22 32.91Z" stroke="#8E89B7" stroke-width="2" stroke-miterlimit="10"/>
<path id="Vector_5" d="M27.22 27.92C30.2134 27.92 32.64 25.4934 32.64 22.5C32.64 19.5066 30.2134 17.08 27.22 17.08C24.2266 17.08 21.8 19.5066 21.8 22.5C21.8 25.4934 24.2266 27.92 27.22 27.92Z" stroke="#F0ECFC" stroke-width="2" stroke-miterlimit="10"/>
<path id="Vector_6" d="M28.72 22.5C28.72 23.3284 28.0484 24 27.22 24C26.3916 24 25.72 23.3284 25.72 22.5C25.72 21.6716 26.3916 21 27.22 21C28.0484 21 28.72 21.6716 28.72 22.5Z" fill="#8E89B7" stroke="#8E89B7"/>
<path id="Vector_7" d="M25.44 14.94V19.83H28.99V14.94H25.44Z" fill="#201F31"/>
<path id="Vector_8" d="M14.37 24.27H19.26V20.72H14.37V24.27Z" fill="#201F31"/>
<path id="Vector_9" d="M34.82 24.27H39.71V20.72H34.82V24.27Z" fill="#201F31"/>
<path id="Vector_10" d="M25.45 25.86V29.95H29V25.86H25.45Z" fill="#201F31"/>
<g id="Group">
<path id="Vector_11" d="M42.46 28.8V12.1H45.87V18.8H53.17V12.1H56.58V28.8H53.17V21.81H45.87V28.8H42.46Z" fill="white"/>
<path id="Vector_12" d="M61.45 15.18C60.89 15.18 60.41 14.98 60.01 14.57C59.61 14.16 59.4 13.68 59.4 13.13C59.4 12.58 59.6 12.09 60.01 11.69C60.42 11.28 60.9 11.08 61.45 11.08C62 11.08 62.49 11.28 62.89 11.69C63.3 12.1 63.5 12.58 63.5 13.13C63.5 13.68 63.3 14.17 62.89 14.57C62.48 14.97 62 15.18 61.45 15.18ZM59.8 28.8V16.63H63.09V28.8H59.8Z" fill="#8E89B7"/>
<path id="Vector_13" d="M66.05 28.8V20.09C66.05 19.01 66.36 18.16 66.97 17.55C67.58 16.94 68.43 16.63 69.51 16.63H72.87V19.42H70.08C69.87 19.42 69.69 19.49 69.54 19.63C69.39 19.77 69.31 19.96 69.31 20.18V28.79H66.04L66.05 28.8Z" fill="#8E89B7"/>
<path id="Vector_14" d="M80.79 28.8C79.41 28.8 78.2 28.53 77.18 28C76.16 27.47 75.36 26.74 74.79 25.82C74.22 24.9 73.94 23.86 73.94 22.72C73.94 21.43 74.2 20.31 74.73 19.36C75.26 18.41 75.97 17.67 76.88 17.14C77.79 16.62 78.81 16.35 79.96 16.35C81.33 16.35 82.44 16.64 83.29 17.21C84.14 17.78 84.76 18.55 85.16 19.51C85.56 20.47 85.76 21.54 85.76 22.72C85.76 22.88 85.76 23.07 85.74 23.28C85.72 23.49 85.7 23.66 85.67 23.77H77.44C77.57 24.26 77.79 24.68 78.1 25.01C78.41 25.34 78.8 25.59 79.27 25.76C79.74 25.93 80.27 26.01 80.86 26.01H84.25V28.8H80.82H80.79ZM77.4 21.57H82.48C82.45 21.27 82.39 20.99 82.31 20.72C82.23 20.45 82.12 20.22 81.98 20.02C81.84 19.81 81.67 19.64 81.48 19.5C81.29 19.36 81.07 19.25 80.81 19.17C80.56 19.09 80.28 19.05 79.98 19.05C79.58 19.05 79.23 19.12 78.92 19.26C78.61 19.4 78.35 19.59 78.15 19.83C77.94 20.07 77.78 20.34 77.66 20.64C77.54 20.94 77.46 21.25 77.41 21.57H77.4Z" fill="#8E89B7"/>
<path id="Vector_15" d="M88.16 28.8V25.79H95.32C95.67 25.79 95.99 25.7 96.27 25.53C96.56 25.36 96.79 25.12 96.96 24.83C97.13 24.54 97.22 24.21 97.22 23.86C97.22 23.51 97.13 23.16 96.96 22.87C96.78 22.58 96.55 22.34 96.27 22.17C95.98 22 95.67 21.91 95.32 21.91H92.53C91.59 21.91 90.74 21.72 89.98 21.34C89.22 20.96 88.61 20.41 88.16 19.68C87.71 18.95 87.48 18.09 87.48 17.07C87.48 16.05 87.69 15.2 88.12 14.46C88.55 13.72 89.13 13.14 89.86 12.73C90.59 12.32 91.4 12.11 92.29 12.11H99.54V15.12H92.62C92.3 15.12 92.01 15.2 91.74 15.37C91.47 15.54 91.26 15.76 91.11 16.03C90.96 16.3 90.88 16.6 90.88 16.94C90.88 17.28 90.96 17.58 91.11 17.85C91.26 18.12 91.47 18.33 91.74 18.49C92.01 18.65 92.3 18.73 92.62 18.73H95.51C96.54 18.73 97.44 18.93 98.21 19.33C98.97 19.73 99.57 20.28 99.99 21C100.41 21.72 100.62 22.55 100.62 23.5C100.62 24.63 100.4 25.59 99.96 26.39C99.52 27.19 98.93 27.79 98.19 28.2C97.45 28.61 96.64 28.82 95.75 28.82H88.17L88.16 28.8Z" fill="white"/>
<path id="Vector_16" d="M109.13 28.8C107.75 28.8 106.54 28.53 105.52 28C104.5 27.47 103.7 26.74 103.13 25.82C102.56 24.9 102.28 23.86 102.28 22.72C102.28 21.43 102.54 20.31 103.07 19.36C103.6 18.41 104.31 17.67 105.22 17.14C106.13 16.62 107.15 16.35 108.3 16.35C109.67 16.35 110.78 16.64 111.63 17.21C112.48 17.78 113.1 18.55 113.5 19.51C113.9 20.47 114.1 21.54 114.1 22.72C114.1 22.88 114.1 23.07 114.08 23.28C114.06 23.49 114.04 23.66 114.01 23.77H105.78C105.91 24.26 106.13 24.68 106.44 25.01C106.75 25.34 107.14 25.59 107.61 25.76C108.08 25.93 108.61 26.01 109.2 26.01H112.59V28.8H109.16H109.13ZM105.74 21.57H110.82C110.79 21.27 110.73 20.99 110.65 20.72C110.57 20.45 110.46 20.22 110.32 20.02C110.18 19.81 110.01 19.64 109.82 19.5C109.63 19.36 109.41 19.25 109.15 19.17C108.9 19.09 108.62 19.05 108.32 19.05C107.92 19.05 107.57 19.12 107.26 19.26C106.95 19.4 106.69 19.59 106.49 19.83C106.28 20.07 106.12 20.34 106 20.64C105.88 20.94 105.8 21.25 105.75 21.57H105.74Z" fill="#8E89B7"/>
<path id="Vector_17" d="M116.4 28.8V21.81C116.4 20.81 116.63 19.89 117.1 19.07C117.57 18.24 118.25 17.58 119.14 17.09C120.03 16.6 121.1 16.35 122.34 16.35C123.58 16.35 124.67 16.6 125.55 17.09C126.43 17.58 127.11 18.24 127.58 19.07C128.05 19.9 128.28 20.81 128.28 21.81V28.8H125.01V21.81C125.01 21.32 124.89 20.87 124.65 20.46C124.41 20.05 124.09 19.73 123.68 19.49C123.27 19.25 122.83 19.13 122.33 19.13C121.83 19.13 121.39 19.25 120.98 19.49C120.57 19.73 120.25 20.05 120.01 20.46C119.77 20.87 119.65 21.31 119.65 21.81V28.8H116.38H116.4Z" fill="#8E89B7"/>
<path id="Vector_18" d="M131.43 28.8V26.01H137.37C137.56 26.01 137.73 25.97 137.88 25.89C138.03 25.81 138.15 25.7 138.24 25.56C138.33 25.42 138.37 25.26 138.37 25.08C138.37 24.89 138.33 24.72 138.24 24.58C138.15 24.44 138.03 24.32 137.88 24.23C137.73 24.14 137.56 24.1 137.37 24.1H135.08C134.3 24.1 133.6 23.98 132.97 23.73C132.34 23.48 131.84 23.09 131.47 22.54C131.1 21.99 130.91 21.27 130.91 20.38C130.91 19.7 131.08 19.07 131.42 18.51C131.76 17.95 132.22 17.49 132.8 17.15C133.38 16.81 134.02 16.64 134.72 16.64H140.42V19.43H135.03C134.79 19.43 134.58 19.51 134.4 19.67C134.22 19.83 134.13 20.04 134.13 20.29C134.13 20.54 134.22 20.76 134.39 20.92C134.56 21.08 134.78 21.17 135.03 21.17H137.32C138.19 21.17 138.95 21.3 139.59 21.56C140.23 21.82 140.72 22.23 141.07 22.79C141.42 23.35 141.59 24.08 141.59 24.98C141.59 25.68 141.42 26.32 141.07 26.9C140.72 27.48 140.25 27.94 139.66 28.28C139.07 28.62 138.41 28.79 137.68 28.79H131.43V28.8Z" fill="#8E89B7"/>
<path id="Vector_19" d="M150.28 28.8C148.9 28.8 147.69 28.53 146.67 28C145.65 27.47 144.85 26.74 144.28 25.82C143.71 24.9 143.43 23.86 143.43 22.72C143.43 21.43 143.69 20.31 144.22 19.36C144.75 18.41 145.46 17.67 146.37 17.14C147.28 16.62 148.3 16.35 149.45 16.35C150.82 16.35 151.93 16.64 152.78 17.21C153.63 17.78 154.25 18.55 154.65 19.51C155.05 20.47 155.25 21.54 155.25 22.72C155.25 22.88 155.25 23.07 155.23 23.28C155.21 23.49 155.19 23.66 155.16 23.77H146.93C147.06 24.26 147.28 24.68 147.59 25.01C147.9 25.34 148.29 25.59 148.76 25.76C149.23 25.93 149.76 26.01 150.35 26.01H153.74V28.8H150.31H150.28ZM146.89 21.57H151.97C151.94 21.27 151.88 20.99 151.8 20.72C151.72 20.45 151.61 20.22 151.47 20.02C151.33 19.81 151.16 19.64 150.97 19.5C150.78 19.36 150.56 19.25 150.3 19.17C150.05 19.09 149.77 19.05 149.47 19.05C149.07 19.05 148.72 19.12 148.41 19.26C148.1 19.4 147.84 19.59 147.64 19.83C147.43 20.07 147.27 20.34 147.15 20.64C147.03 20.94 146.95 21.25 146.9 21.57H146.89Z" fill="#8E89B7"/>
</g>
</g>
<defs>
<clipPath id="clip0_49_361">
<rect width="155" height="45" fill="white"/>
</clipPath>
</defs>
</svg>
